<svg width="565" height="143" viewBox="0 0 565 143" fill="none" xmlns="http://www.w3.org/2000/svg">
<path d="M565 49.4321C565 22.1315 542.843 0 515.511 0H73.016C45.684 0 23.5269 22.1315 23.5269 49.4321V72.1273C23.5269 78.1321 22.4316 84.0866 20.2946 89.6993L0 143L74.7729 128.201C77.9407 127.575 81.1623 127.259 84.3917 127.259H515.511C542.843 127.259 565 105.127 565 77.8267V49.4321Z" fill="url(#paint0_linear_34_4273)"/>
<path d="M194.546 55.7582L194.853 50.5561H203.814V88.2716H195.006L194.546 82.7635C192.402 87.2006 186.504 89.3426 182.292 89.4191C171.11 89.4956 162.838 82.6105 162.838 69.3756C162.838 56.3703 171.493 49.5616 182.522 49.6381C187.577 49.6381 192.402 52.0096 194.546 55.7582ZM183.364 57.9768C177.16 57.9768 172.182 62.1844 172.182 69.3756C172.182 76.5668 177.16 80.8509 183.364 80.8509C198.069 80.8509 198.069 57.9768 183.364 57.9768Z" fill="white"/>
<path d="M241.598 54.4577L236.39 60.5779C233.709 58.0533 230.645 57.2118 227.046 57.2118C222.603 57.2118 220.152 58.5888 220.152 60.9604C220.152 63.4084 222.374 64.7855 227.199 65.0915C234.322 65.5505 243.359 67.157 243.359 77.1788C243.359 83.8345 237.921 89.5722 227.122 89.5722C221.148 89.5722 215.174 88.5776 209.66 82.84L214.255 76.1843C216.936 79.1679 223.063 81.3864 227.275 81.4629C230.799 81.5394 234.092 79.7034 234.092 76.9493C234.092 74.3482 231.947 73.2772 226.586 72.9712C219.463 72.4357 210.962 69.8346 210.962 61.2664C210.962 52.5451 219.999 49.4851 226.892 49.4851C232.79 49.4851 237.232 50.6326 241.598 54.4577Z" fill="white"/>
<path d="M249.12 34.7967H258.464V65.7035L271.178 50.5561H282.36V51.0916L266.965 68.3046L284.504 87.5831V88.2716H273.246L258.464 71.2117V88.2716H249.12V34.7967Z" fill="white"/>
<path d="M288.537 34.7967H297.881V65.7035L310.595 50.5561H321.777V51.0916L306.382 68.3046L323.921 87.5831V88.2716H312.663L297.881 71.2117V88.2716H288.537V34.7967Z" fill="white"/>
<path d="M332.013 40.9168L341.357 39.9223V50.6326H351.773V58.6653H341.28V74.9603C341.28 78.5558 343.272 80.3154 346.182 80.3154C347.637 80.3154 349.322 79.8564 350.701 79.1679L353.305 87.1241C350.625 88.1951 348.403 88.6541 345.57 88.7306C337.374 89.0366 332.013 84.37 332.013 74.9603V58.6653H324.967V50.6326H332.013V40.9168Z" fill="white"/>
<path d="M359.005 50.5561H368.349V70.2936C368.349 76.0313 371.489 80.3919 377.463 80.3919C383.207 80.3919 387.113 75.5723 387.113 69.8346V50.5561H396.381V88.3481H388.032L387.42 83.2225C383.513 87.0476 379.914 88.8836 374.629 88.8836C365.591 88.8836 359.005 82.0749 359.005 70.3701V50.5561Z" fill="white"/>
<path d="M415.73 82.534C415.73 74.4247 427.984 74.4247 427.984 82.534C427.984 90.5667 415.73 90.5667 415.73 82.534ZM413.815 50.7856H403.552C403.629 39.4633 413.202 34.4142 424.002 34.4142C434.801 34.4142 444.757 39.0808 444.528 50.5561C444.528 61.6489 434.341 62.7964 429.899 65.78C427.831 67.157 426.989 69.2991 426.989 72.8947V73.2772H416.879V72.8182C416.955 62.3374 421.244 59.9658 425.303 57.8238C429.363 55.6817 434.035 55.0697 434.035 50.4796C434.035 44.5889 428.597 43.2119 423.848 43.2119C418.947 43.2119 413.892 45.966 413.815 50.7856Z" fill="white"/>
<defs>
<linearGradient id="paint0_linear_34_4273" x1="0" y1="71.5" x2="565" y2="71.5" gradientUnits="userSpaceOnUse">
<stop stop-color="#A769F5"/>
<stop offset="1" stop-color="#69AFF5"/>
</linearGradient>
</defs>
</svg>
